<?xml version="1.0" encoding="UTF-8"?>
<svg id="SVGDoc" width="28" height="29" xmlns="http://www.w3.org/2000/svg" version="1.1" xmlns:xlink="http://www.w3.org/1999/xlink" xmlns:avocode="https://avocode.com/" viewBox="0 0 28 29"><defs><clipPath id="clip-ba3086d9-b8ad-4e99-844e-f5516d975091"><path d="M27.80882,12.32995v0h-13.09326v0v5.42853v0h7.53687c-0.70203,3.4491 -3.6405,5.4295 -7.53687,5.4295c-4.59839,0 -8.30347,-3.70496 -8.30347,-8.30347c0,-4.59839 3.70508,-8.30341 8.30347,-8.30341c1.98047,0 3.76843,0.70319 5.17371,1.85248l4.08777,-4.08771c-2.49121,-2.17187 -5.68433,-3.51257 -9.26147,-3.51257c-7.79163,0 -14.05115,6.25958 -14.05115,14.05121c0,7.79285 6.25952,14.05133 14.05115,14.05133c7.02625,0 13.4126,-5.10919 13.4126,-14.05133c0,-0.82996 -0.12793,-1.72449 -0.31934,-2.55457z" ></path></clipPath><clipPath id="clip-cfc36c13-1f67-494a-8011-3221c782ba99"><path d="M27.80882,12.32995v0h-13.09326v0v5.42853v0h7.53687c-0.70203,3.4491 -3.6405,5.4295 -7.53687,5.4295c-4.59839,0 -8.30347,-3.70496 -8.30347,-8.30347c0,-4.59839 3.70508,-8.30341 8.30347,-8.30341c1.98047,0 3.76843,0.70319 5.17371,1.85248l4.08777,-4.08771c-2.49121,-2.17187 -5.68433,-3.51257 -9.26147,-3.51257c-7.79163,0 -14.05115,6.25958 -14.05115,14.05121c0,7.79285 6.25952,14.05133 14.05115,14.05133c7.02625,0 13.4126,-5.10919 13.4126,-14.05133c0,-0.82996 -0.12793,-1.72449 -0.31934,-2.55457z" ></path></clipPath><clipPath id="clip-bc195791-28d6-498d-bea2-1e967d3d1c67"><path d="M27.80882,12.32995v0h-13.09326v0v5.42853v0h7.53687c-0.70203,3.4491 -3.6405,5.4295 -7.53687,5.4295c-4.59839,0 -8.30347,-3.70496 -8.30347,-8.30347c0,-4.59839 3.70508,-8.30341 8.30347,-8.30341c1.98047,0 3.76843,0.70319 5.17371,1.85248l4.08777,-4.08771c-2.49121,-2.17187 -5.68433,-3.51257 -9.26147,-3.51257c-7.79163,0 -14.05115,6.25958 -14.05115,14.05121c0,7.79285 6.25952,14.05133 14.05115,14.05133c7.02625,0 13.4126,-5.10919 13.4126,-14.05133c0,-0.82996 -0.12793,-1.72449 -0.31934,-2.55457z" ></path></clipPath><clipPath id="clip-a6a87acf-da8f-47b3-a643-60c19fb6a2aa"><path d="M27.80882,12.32995v0h-13.09326v0v5.42853v0h7.53687c-0.70203,3.4491 -3.6405,5.4295 -7.53687,5.4295c-4.59839,0 -8.30347,-3.70496 -8.30347,-8.30347c0,-4.59839 3.70508,-8.30341 8.30347,-8.30341c1.98047,0 3.76843,0.70319 5.17371,1.85248l4.08777,-4.08771c-2.49121,-2.17187 -5.68433,-3.51257 -9.26147,-3.51257c-7.79163,0 -14.05115,6.25958 -14.05115,14.05121c0,7.79285 6.25952,14.05133 14.05115,14.05133c7.02625,0 13.4126,-5.10919 13.4126,-14.05133c0,-0.82996 -0.12793,-1.72449 -0.31934,-2.55457z" ></path></clipPath></defs><desc>Generated with Avocode.</desc><g><g><title>Group 3870</title><g><title>Group 3863</title><g><title>Group 3862</title><g><title>Path 4461</title></g><g clip-path="url(#clip-ba3086d9-b8ad-4e99-844e-f5516d975091)"><title>Path 4460</title><path d="M-0.61293,23.18798v0v-16.60687v0l10.85803,8.30341v0z" fill="#fbbc05" fill-opacity="1"></path></g></g></g><g><title>Group 3865</title><g><title>Group 3864</title><g><title>Path 4463</title></g><g clip-path="url(#clip-cfc36c13-1f67-494a-8011-3221c782ba99)"><title>Path 4462</title><path d="M-0.61293,6.58111v0l10.85803,8.30341v0l4.47046,-3.89636v0l15.32849,-2.48999v0v-8.94208v0h-30.65698v0z" fill="#ea4335" fill-opacity="1"></path></g></g></g><g><title>Group 3867</title><g><title>Group 3866</title><g><title>Path 4465</title></g><g clip-path="url(#clip-bc195791-28d6-498d-bea2-1e967d3d1c67)"><title>Path 4464</title><path d="M-0.61293,23.18798v0l19.1604,-14.68982v0l5.04565,0.63861v0l6.45093,-9.58069v0v30.65698v0h-30.65698v0z" fill="#34a853" fill-opacity="1"></path></g></g></g><g><title>Group 3869</title><g><title>Group 3868</title><g><title>Path 4467</title></g><g clip-path="url(#clip-a6a87acf-da8f-47b3-a643-60c19fb6a2aa)"><title>Path 4466</title><path d="M30.04405,30.21307v0l-19.79895,-15.32855v0l-2.55566,-1.91583v0l22.35461,-6.38757v0z" fill="#4285f4" fill-opacity="1"></path></g></g></g></g></g></svg>