<?xml version="1.0" encoding="UTF-8"?>
<svg id="SVGDoc" width="21" height="20" xmlns="http://www.w3.org/2000/svg" version="1.1" xmlns:xlink="http://www.w3.org/1999/xlink" xmlns:avocode="https://avocode.com/" viewBox="0 0 21 20"><defs></defs><desc>Generated with Avocode.</desc><g><g><title>Path 4481</title><path d="M6.89465,8.789c-0.1308,-0.31848 -0.22211,-0.64928 -0.28137,-0.9875c-0.0235,-0.13579 -0.0235,-0.2765 -0.04443,-0.41475c-0.0025,-0.01849 0.01111,-0.03827 0.01599,-0.05681c-0.01355,-0.13945 -0.01233,-0.27896 0,-0.41841c0.01849,-0.60115 0.19257,-1.16032 0.46539,-1.68987c0.23083,-0.44931 0.54437,-0.84061 0.92206,-1.17636c0.29254,-0.26167 0.61969,-0.47771 0.97766,-0.64188c0.39624,-0.1839 0.80847,-0.31599 1.24664,-0.36288c0.22968,-0.0247 0.45923,-0.04939 0.69006,-0.03583c0.83936,0.04568 1.60718,0.29381 2.29224,0.79248c0.39374,0.28513 0.72949,0.62462 0.99982,1.02577c0.28638,0.42584 0.49744,0.88873 0.60614,1.39481c0.0506,0.23581 0.10242,0.47157 0.10614,0.71474c0.02954,0.15306 0.03082,0.30611 0,0.45917c-0.026,0.5172 -0.14941,1.01096 -0.35675,1.48372c-0.24567,0.55795 -0.60858,1.0307 -1.05908,1.43433c-0.51105,0.45676 -1.10602,0.76161 -1.76764,0.92703c-0.43079,0.10738 -0.87524,0.13701 -1.31586,0.10121c-0.46289,-0.03703 -0.91095,-0.15181 -1.34052,-0.34438c-0.54193,-0.24442 -1.00977,-0.5851 -1.40717,-1.02208c-0.31726,-0.3493 -0.56781,-0.74309 -0.74933,-1.18251zM2.82745,19.17868c0.03949,-0.23575 0.09753,-0.46655 0.17279,-0.69492c0.33698,-1.01221 0.948,-1.84047 1.72565,-2.55394c0.75049,-0.68875 1.6084,-1.21216 2.54156,-1.61824c0.58636,-0.25554 1.19733,-0.43822 1.82196,-0.5703c0.50482,-0.10492 1.01837,-0.15924 1.53436,-0.17526c0.1394,-0.00865 0.27771,-0.00865 0.41589,0c0.20001,0.01233 0.39874,0.02589 0.59747,0.04443c0.40112,0.03455 0.79492,0.10489 1.18378,0.20117c0.73071,0.18269 1.42566,0.45673 2.08112,0.82704c0.69623,0.39253 1.32574,0.87148 1.86761,1.46399c0.46045,0.5036 0.84058,1.05536 1.11957,1.67873c0.20117,0.45052 0.33698,0.91588 0.40729,1.39729h2.17255v-0.00122c0.00244,-0.1543 -0.03082,-0.30487 -0.04199,-0.4567c-0.02588,-0.3407 -0.10242,-0.67026 -0.19495,-0.9949c-0.16425,-0.58018 -0.41357,-1.12453 -0.72217,-1.64174c-0.32336,-0.54066 -0.71466,-1.02698 -1.14545,-1.48492c-0.12469,-0.13332 -0.26422,-0.25182 -0.39752,-0.37773c-0.1925,-0.18147 -0.39496,-0.35426 -0.6048,-0.51352c-0.36536,-0.27896 -0.74683,-0.53447 -1.14673,-0.7653c-0.50238,-0.29005 -1.01959,-0.54436 -1.56274,-0.74802c-0.1629,-0.06172 -0.32336,-0.1259 -0.48267,-0.18764c1.61084,-1.1813 2.49713,-2.75882 2.6181,-4.75972c0,-0.07034 -0.01349,-0.14197 0.01355,-0.21231c-0.02216,-0.02962 -0.02094,-0.06421 -0.01849,-0.09752c0.01727,-0.29254 -0.01971,-0.58139 -0.06165,-0.86775c-0.0556,-0.37773 -0.14819,-0.74928 -0.27655,-1.10973c-0.27155,-0.76654 -0.68262,-1.45285 -1.22571,-2.05397c-0.2926,-0.32465 -0.61591,-0.62215 -0.97516,-0.87393c-0.54932,-0.38391 -1.14429,-0.68015 -1.78613,-0.87518c-0.54437,-0.16539 -1.1048,-0.23825 -1.67255,-0.25674c-0.12964,-0.00369 -0.2605,0.01605 -0.39001,0.01605c-0.19385,0 -0.38397,0.02098 -0.57153,0.0506c-0.46417,0.07159 -0.91595,0.19009 -1.35535,0.36168c-0.68634,0.26787 -1.29736,0.65421 -1.83929,1.14671c-0.66406,0.6024 -1.17139,1.32079 -1.52197,2.14906c-0.27277,0.64555 -0.4234,1.3183 -0.47028,2.01447c-0.01849,0.27036 -0.01233,0.54439 0.01111,0.81842c0.0321,0.37154 0.09137,0.73692 0.1864,1.09735c0.27277,1.04675 0.80359,1.94412 1.54919,2.71931c0.22705,0.23701 0.48138,0.44191 0.74921,0.64557l-0.09503,0.02962c-0.72339,0.24318 -1.4245,0.53819 -2.08856,0.9184c-0.78137,0.44804 -1.49976,0.97762 -2.13306,1.62073c-0.48138,0.48755 -0.90475,1.02081 -1.25284,1.61208c-0.48392,0.82579 -0.80356,1.70961 -0.90228,2.66374c-0.01361,0.13824 -0.02475,0.27652 -0.0321,0.41476z" fill="#ffffff" fill-opacity="1"></path><path d="M6.89465,8.789c-0.1308,-0.31848 -0.22211,-0.64928 -0.28137,-0.9875c-0.0235,-0.13579 -0.0235,-0.2765 -0.04443,-0.41475c-0.0025,-0.01849 0.01111,-0.03827 0.01599,-0.05681c-0.01355,-0.13945 -0.01233,-0.27896 0,-0.41841c0.01849,-0.60115 0.19257,-1.16032 0.46539,-1.68987c0.23083,-0.44931 0.54437,-0.84061 0.92206,-1.17636c0.29254,-0.26167 0.61969,-0.47771 0.97766,-0.64188c0.39624,-0.1839 0.80847,-0.31599 1.24664,-0.36288c0.22968,-0.0247 0.45923,-0.04939 0.69006,-0.03583c0.83936,0.04568 1.60718,0.29381 2.29224,0.79248c0.39374,0.28513 0.72949,0.62462 0.99982,1.02577c0.28638,0.42584 0.49744,0.88873 0.60614,1.39481c0.0506,0.23581 0.10242,0.47157 0.10614,0.71474c0.02954,0.15306 0.03082,0.30611 0,0.45917c-0.026,0.5172 -0.14941,1.01096 -0.35675,1.48372c-0.24567,0.55795 -0.60858,1.0307 -1.05908,1.43433c-0.51105,0.45676 -1.10602,0.76161 -1.76764,0.92703c-0.43079,0.10738 -0.87524,0.13701 -1.31586,0.10121c-0.46289,-0.03703 -0.91095,-0.15181 -1.34052,-0.34438c-0.54193,-0.24442 -1.00977,-0.5851 -1.40717,-1.02208c-0.31726,-0.3493 -0.56781,-0.74309 -0.74933,-1.18251zM2.82745,19.17868c0.03949,-0.23575 0.09753,-0.46655 0.17279,-0.69492c0.33698,-1.01221 0.948,-1.84047 1.72565,-2.55394c0.75049,-0.68875 1.6084,-1.21216 2.54156,-1.61824c0.58636,-0.25554 1.19733,-0.43822 1.82196,-0.5703c0.50482,-0.10492 1.01837,-0.15924 1.53436,-0.17526c0.1394,-0.00865 0.27771,-0.00865 0.41589,0c0.20001,0.01233 0.39874,0.02589 0.59747,0.04443c0.40112,0.03455 0.79492,0.10489 1.18378,0.20117c0.73071,0.18269 1.42566,0.45673 2.08112,0.82704c0.69623,0.39253 1.32574,0.87148 1.86761,1.46399c0.46045,0.5036 0.84058,1.05536 1.11957,1.67873c0.20117,0.45052 0.33698,0.91588 0.40729,1.39729h2.17255v-0.00122c0.00244,-0.1543 -0.03082,-0.30487 -0.04199,-0.4567c-0.02588,-0.3407 -0.10242,-0.67026 -0.19495,-0.9949c-0.16425,-0.58018 -0.41357,-1.12453 -0.72217,-1.64174c-0.32336,-0.54066 -0.71466,-1.02698 -1.14545,-1.48492c-0.12469,-0.13332 -0.26422,-0.25182 -0.39752,-0.37773c-0.1925,-0.18147 -0.39496,-0.35426 -0.6048,-0.51352c-0.36536,-0.27896 -0.74683,-0.53447 -1.14673,-0.7653c-0.50238,-0.29005 -1.01959,-0.54436 -1.56274,-0.74802c-0.1629,-0.06172 -0.32336,-0.1259 -0.48267,-0.18764c1.61084,-1.1813 2.49713,-2.75882 2.6181,-4.75972c0,-0.07034 -0.01349,-0.14197 0.01355,-0.21231c-0.02216,-0.02962 -0.02094,-0.06421 -0.01849,-0.09752c0.01727,-0.29254 -0.01971,-0.58139 -0.06165,-0.86775c-0.0556,-0.37773 -0.14819,-0.74928 -0.27655,-1.10973c-0.27155,-0.76654 -0.68262,-1.45285 -1.22571,-2.05397c-0.2926,-0.32465 -0.61591,-0.62215 -0.97516,-0.87393c-0.54932,-0.38391 -1.14429,-0.68015 -1.78613,-0.87518c-0.54437,-0.16539 -1.1048,-0.23825 -1.67255,-0.25674c-0.12964,-0.00369 -0.2605,0.01605 -0.39001,0.01605c-0.19385,0 -0.38397,0.02098 -0.57153,0.0506c-0.46417,0.07159 -0.91595,0.19009 -1.35535,0.36168c-0.68634,0.26787 -1.29736,0.65421 -1.83929,1.14671c-0.66406,0.6024 -1.17139,1.32079 -1.52197,2.14906c-0.27277,0.64555 -0.4234,1.3183 -0.47028,2.01447c-0.01849,0.27036 -0.01233,0.54439 0.01111,0.81842c0.0321,0.37154 0.09137,0.73692 0.1864,1.09735c0.27277,1.04675 0.80359,1.94412 1.54919,2.71931c0.22705,0.23701 0.48138,0.44191 0.74921,0.64557l-0.09503,0.02962c-0.72339,0.24318 -1.4245,0.53819 -2.08856,0.9184c-0.78137,0.44804 -1.49976,0.97762 -2.13306,1.62073c-0.48138,0.48755 -0.90475,1.02081 -1.25284,1.61208c-0.48392,0.82579 -0.80356,1.70961 -0.90228,2.66374c-0.01361,0.13824 -0.02475,0.27652 -0.0321,0.41476z" fill-opacity="0" fill="#ffffff" stroke-dashoffset="0" stroke-linejoin="miter" stroke-linecap="butt" stroke-opacity="1" stroke="#ffffff" stroke-miterlimit="50" stroke-width="0.30000001192092896"></path></g></g></svg>